HIERARCHY
ROOT Hips
{
  OFFSET -33.2506 35.5387 35.0159
  CHANNELS 6 Xposition Yposition Zposition Zrotation Xrotation Yrotation
  JOINT Spine
  {
    OFFSET 0 0 9.09008
    CHANNELS 6 Xposition Yposition Zposition Zrotation Xrotation Yrotation
    JOINT Head
    {
      OFFSET 0 0 15.9751
      CHANNELS 6 Xposition Yposition Zposition Zrotation Xrotation Yrotation
      End Site
      {
        OFFSET 0 0 4.52755
      }
    }
    JOINT LeftShoulder
    {
      OFFSET 0 0 12.5984
      CHANNELS 6 Xposition Yposition Zposition Zrotation Xrotation Yrotation
      JOINT LeftArm
      {
        OFFSET -7.874 0 0
        CHANNELS 6 Xposition Yposition Zposition Zrotation Xrotation Yrotation
        JOINT LeftForeArm
        {
          OFFSET -12.9921 0 0
          CHANNELS 6 Xposition Yposition Zposition Zrotation Xrotation Yrotation
          JOINT LeftHand
          {
            OFFSET -10.3081 0 0
            CHANNELS 6 Xposition Yposition Zposition Zrotation Xrotation Yrotation
            JOINT LeftHandPinky1
            {
              OFFSET -2.81979 -0.13815 0
              CHANNELS 6 Xposition Yposition Zposition Zrotation Xrotation Yrotation
              End Site
              {
                OFFSET -1.9685 0 0
              }
            }
            JOINT LeftHandIndex1
            {
              OFFSET -4.14743 0.13815 0
              CHANNELS 6 Xposition Yposition Zposition Zrotation Xrotation Yrotation
              End Site
              {
                OFFSET -2.3622 0 0
              }
            }
          }
        }
      }
    }
    JOINT RightShoulder
    {
      OFFSET 0 0 12.5984
      CHANNELS 6 Xposition Yposition Zposition Zrotation Xrotation Yrotation
      JOINT RightArm
      {
        OFFSET 7.874 0 0
        CHANNELS 6 Xposition Yposition Zposition Zrotation Xrotation Yrotation
        JOINT RightForeArm
        {
          OFFSET 12.9921 0 0
          CHANNELS 6 Xposition Yposition Zposition Zrotation Xrotation Yrotation
          JOINT RightHand
          {
            OFFSET 10.3081 0 0
            CHANNELS 6 Xposition Yposition Zposition Zrotation Xrotation Yrotation
            JOINT RightHandPinky1
            {
              OFFSET 2.94832 -0.17528 0
              CHANNELS 6 Xposition Yposition Zposition Zrotation Xrotation Yrotation
              End Site
              {
                OFFSET 1.9685 0 0
              }
            }
            JOINT RightHandIndex1
            {
              OFFSET 3.46188 0.17528 0
              CHANNELS 6 Xposition Yposition Zposition Zrotation Xrotation Yrotation
              End Site
              {
                OFFSET 2.3622 0 0
              }
            }
          }
        }
      }
    }
  }
  JOINT LeftUpLeg
  {
    OFFSET -4.08853 0 0
    CHANNELS 6 Xposition Yposition Zposition Zrotation Xrotation Yrotation
    JOINT LeftLeg
    {
      OFFSET 0 0 -17.3605
      CHANNELS 6 Xposition Yposition Zposition Zrotation Xrotation Yrotation
      JOINT LeftFoot
      {
        OFFSET 0 0 -16.1351
        CHANNELS 6 Xposition Yposition Zposition Zrotation Xrotation Yrotation
        JOINT LeftToeBase
        {
          OFFSET 0 5.10779 -1.36863
          CHANNELS 6 Xposition Yposition Zposition Zrotation Xrotation Yrotation
          End Site
          {
            OFFSET 0 1.77165 0
          }
        }
      }
    }
  }
  JOINT RightUpLeg
  {
    OFFSET 4.08853 0 0
    CHANNELS 6 Xposition Yposition Zposition Zrotation Xrotation Yrotation
    JOINT RightLeg
    {
      OFFSET 0 0 -17.3605
      CHANNELS 6 Xposition Yposition Zposition Zrotation Xrotation Yrotation
      JOINT RightFoot
      {
        OFFSET 0 0 -16.1351
        CHANNELS 6 Xposition Yposition Zposition Zrotation Xrotation Yrotation
        JOINT RightToeBase
        {
          OFFSET 0 5.10779 -1.36863
          CHANNELS 6 Xposition Yposition Zposition Zrotation Xrotation Yrotation
          End Site
          {
            OFFSET 0 1.77165 0
          }
        }
      }
    }
  }
}
MOTION
Frames:	4
Frame Time:	0.0416667
-33.2506 35.5387 35.0159 -71.5422 2.59032 -88.6423 0 0 9.09008 -10.6624 -30.2195 -8.07708 -1e-005 0 15.9751 21.2352 -9.96061 -1.85224 -1e-005 0 12.5984 9.91248 -35.5712 7.3153 -7.874 7.10543e-015 3.55271e-015 -2.3198 36.3613 -78.037 -12.9921 1e-005 0 -38.3385 -28.19 -0 -10.3081 0 0 10.2251 2.64588 14.3549 -2.81979 -0.13815 -1.77636e-015 -1.93867 2.76769 -54.9693 -4.14743 0.13815 -1.77636e-015 -12.1728 14.375 -49.0136 -1e-005 0 12.5984 -3.05572 -24.6701 -5.23039 7.874 1.42109e-014 1e-005 36.1582 19.6665 60.6681 12.9921 -1e-005 1e-005 32.8379 23.6444 6.07604e-015 10.3081 -3.55271e-015 1e-005 -16.6485 6.27792 -20.0865 2.94832 -0.17528 1.42109e-014 -3.83253 -4.06306 46.6057 3.46188 0.17528 7.10543e-015 10.2286 8.52787 39.4137 -4.08853 0 0 -0.450745 -16.4219 -5.40788 1e-005 3.55271e-015 -17.3605 3.97569e-016 -13.9678 -0 1e-005 7.10543e-015 -16.1351 4.84514 5.40518 6.81671 -3.55271e-015 5.10779 -1.36863 1.05416e-015 9.8843 8.07119e-016 4.08853 0 0 -10.8887 0.174556 -9.46059 1e-005 7.10543e-015 -17.3605 1.38572e-014 -57.5256 8.88551e-015 1e-005 7.10543e-015 -16.1351 -2.32741 2.47708 6.34561 0 5.10779 -1.36863 7.56865e-015 20.79 -3.40207e-015 
-31.8683 35.4848 34.9297 -71.6531 1.69722 -88.3976 0 -7.10543e-015 9.09008 -11.6364 -29.8484 -8.40954 -1e-005 -7.10543e-015 15.9751 21.2901 -9.60061 -1.64287 -1e-005 -7.10543e-015 12.5984 9.74021 -34.6456 7.73637 -7.874 -7.10543e-015 0 -4.42866 37.7738 -75.9431 -12.9921 1e-005 0 -42.2519 -24.3649 -4.3644e-015 -10.3081 3.55271e-015 3.55271e-015 9.42279 2.46777 14.5425 -2.81979 -0.13815 -3.55271e-015 -3.18989 3.79858 -49.9192 -4.14743 0.13815 0 -13.0236 14.2122 -46.7062 -1e-005 -7.10543e-015 12.5984 -3.53836 -25.3852 -5.02232 7.874 0 1e-005 35.4745 18.8963 61.2766 12.9921 -1e-005 1e-005 32.4903 23.7774 -8.68891e-015 10.3081 0 1e-005 -16.9696 6.26803 -19.6867 2.94832 -0.17528 7.10543e-015 -3.51933 -3.75192 46.7756 3.46188 0.17528 -7.10543e-015 10.8415 8.87903 38.8671 -4.08853 -7.10543e-015 -7.10543e-015 -2.01912 -19.0741 -6.0309 1e-005 -3.55271e-015 -17.3605 2.42476e-015 -12.6944 -1.63012e-015 1e-005 -7.10543e-015 -16.1351 4.80619 6.88754 6.54218 -3.55271e-015 5.10779 -1.36863 2.38542e-015 9.3909 -0 4.08853 0 -7.10543e-015 -11.2415 2.54746 -8.08647 1e-005 -3.55271e-015 -17.3605 4.87225e-015 -49.2627 8.52903e-015 1e-005 3.55271e-015 -16.1351 -2.97631 4.00439 5.43468 -7.10543e-015 5.10779 -1.36863 5.78318e-015 19.9718 1.69203e-015 
-30.4793 35.3458 34.8686 -71.9087 -0.679396 -87.6063 0 -7.10543e-015 9.09008 -12.6994 -29.2232 -9.02597 -1e-005 0 15.9751 21.7257 -9.18357 -1.4049 -1e-005 -7.10543e-015 12.5984 9.98228 -34.1032 8.32462 -7.874 -7.10543e-015 3.55271e-015 -6.43584 39.0747 -74.0088 -12.9921 1e-005 3.55271e-015 -46.7146 -22.2321 -7.73098e-015 -10.3081 -3.55271e-015 1.77636e-015 8.69806 2.35248 15.0195 -2.81979 -0.13815 -1.77636e-015 -3.20187 3.37971 -46.5086 -4.14743 0.13815 1.77636e-015 -13.2889 13.8903 -45.4661 -1e-005 -7.10543e-015 12.5984 -3.85093 -26.2308 -4.75239 7.874 0 1e-005 35.2121 18.2038 61.5283 12.9921 -1e-005 1e-005 31.9771 23.8938 -0 10.3081 0 1e-005 -17.2118 6.23835 -19.3303 2.94832 -0.17528 0 -3.46595 -3.66442 46.5359 3.46188 0.17528 0 11.1094 9.0558 38.714 -4.08853 0 0 -3.15917 -21.2882 -6.57868 1e-005 3.55271e-015 -17.3605 2.21612e-015 -12.0194 -8.12961e-016 1e-005 0 -16.1351 4.38773 8.33826 6.40087 3.55271e-015 5.10779 -1.36863 -3.97569e-016 9.93918 -0 4.08853 -3.55271e-015 7.10543e-015 -11.1954 3.38706 -7.0292 1e-005 -3.55271e-015 -17.3605 3.73885e-015 -37.1198 -6.98037e-015 1e-005 3.55271e-015 -16.1351 -2.89559 3.82403 6.30802 0 5.10779 -1.36863 9.2607e-015 19.461 8.43319e-016 
-29.0591 35.1497 34.7952 -72.2336 -1.37301 -86.9239 -7.10543e-015 7.10543e-015 9.09008 -13.7634 -28.4653 -9.92094 -1e-005 0 15.9751 22.396 -8.93782 -1.19152 -1e-005 7.10543e-015 12.5984 10.0729 -33.2777 8.89354 -7.874 7.10543e-015 3.55271e-015 -7.92121 39.4586 -72.6848 -12.9921 1e-005 3.55271e-015 -51.1889 -20.8808 6.38273e-015 -10.3081 0 1.77636e-015 8.17741 2.32552 15.768 -2.81979 -0.13815 1.77636e-015 -2.12908 2.1663 -45.5647 -4.14743 0.13815 -1.77636e-015 -13.5465 14.0789 -45.2754 -1e-005 7.10543e-015 12.5984 -4.10891 -26.6373 -4.66445 7.874 0 1e-005 34.8664 17.592 62.1309 12.9921 -1e-005 1e-005 30.9246 23.7392 -1.73727e-015 10.3081 0 1e-005 -17.4157 6.17621 -18.9314 2.94832 -0.17528 7.10543e-015 -3.47086 -3.6719 46.5592 3.46188 0.17528 0 11.1389 9.14135 38.8994 -4.08853 7.10543e-015 0 -4.87944 -23.2049 -7.75273 1e-005 0 -17.3605 4.62122e-016 -11.8273 -1.62477e-015 1e-005 7.10543e-015 -16.1351 4.36792 9.74849 6.57507 -3.55271e-015 5.10779 -1.36863 -3.97569e-016 10.4056 -0 4.08853 3.55271e-015 0 -11.2227 2.8378 -6.73067 1e-005 0 -17.3605 1.26866e-015 -22.0222 -8.57719e-016 1e-005 -3.55271e-015 -16.1351 -0.505133 2.66626 6.75341 0 5.10779 -1.36863 1.05633e-015 18.5597 1.67752e-015 
